Coordinates
version=1
nRows=17
nColumns=24
inDegrees=yes

Units are S.I. units (second, meters, Newtons, ...)
Angles are in degrees.

endheader
time	pelvis_tilt	pelvis_list	pelvis_rotation	pelvis_tx	pelvis_ty	pelvis_tz	hip_flexion_r	hip_adduction_r	hip_rotation_r	knee_angle_r	ankle_angle_r	subtalar_angle_r	mtp_angle_r	hip_flexion_l	hip_adduction_l	hip_rotation_l	knee_angle_l	ankle_angle_l	subtalar_angle_l	mtp_angle_l	lumbar_extension	lumbar_bending	lumbar_rotation
      1.94000000	     13.36548737	      2.54207717	     -5.03598849	      0.40777826	      0.94685801	      0.30413927	      4.82032947	     -5.60518914	     -1.81638289	    -68.54030924	     18.31632669	      5.21956761	     48.44989941	     -2.69431812	      7.00399622	     -6.64365743	    -20.37113605	     21.72014951	      4.10537156	     17.82221676	    -29.55830448	     -3.32511773	      7.09227507
      1.94500000	     13.55311907	      2.53180396	     -4.89051912	      0.41401348	      0.94778324	      0.30419862	      5.25783841	     -5.57810223	     -1.99815987	    -68.10107146	     18.76647892	      5.18128534	     48.38387604	     -3.60274083	      7.01060167	     -6.55411985	    -19.85259492	     21.89624709	      4.45887133	     17.64157969	    -29.74198752	     -3.19775449	      6.92379815
      1.95000000	     13.71447398	      2.53240995	     -4.71803244	      0.42026987	      0.94856899	      0.30421832	      5.70943870	     -5.58960643	     -2.22520156	    -67.67215576	     19.13432355	      5.21854856	     48.06816472	     -4.48973676	      7.01676263	     -6.47702970	    -19.31543903	     22.08648737	      4.85374173	     17.38995084	    -29.89054301	     -3.05913292	      6.69846324
      1.95500000	     13.75106914	      2.50613521	     -4.55875300	      0.42626098	      0.94911687	      0.30443962	      6.33226217	     -5.50021505	     -2.36115092	    -67.21924009	     19.47170870	      5.34874305	     46.76793378	     -5.14826036	      6.94927937	     -6.60687371	    -18.92827956	     22.45751321	      5.42552806	     16.31609708	    -29.93965715	     -2.91049003	      6.53714806
      1.96000000	     13.80605650	      2.48553466	     -4.33625304	      0.43246178	      0.94956451	      0.30452058	      6.86833988	     -5.47074095	     -2.63692593	    -66.66156253	     19.85435884	      5.65813774	     46.69423775	     -5.78433754	      6.88401949	     -6.64976013	    -18.65419313	     22.71209222	      5.89198880	     16.30431023	    -29.98910982	     -2.73416522	      6.31910684
      1.96500000	     14.05040709	      2.36598094	     -4.17839549	      0.43860527	      0.95038197	      0.30477051	      7.15901733	     -5.31449028	     -2.84539920	    -65.95564959	     20.17278526	      5.50139074	     46.38282568	     -6.66454323	      6.68319179	     -6.79712696	    -18.33015521	     22.96764396	      6.64108239	     16.16331912	    -30.25435485	     -2.50564192	      6.15609038
      1.97000000	     14.17613957	      2.38135364	     -4.04847867	      0.44483938	      0.95084135	      0.30500387	      7.60516984	     -5.31036342	     -3.00042337	    -65.26294893	     20.43100339	      5.31095259	     46.20232298	     -7.39707940	      6.63021413	     -6.81550097	    -18.02616638	     23.19762344	      7.30538594	     15.99766586	    -30.36276077	     -2.41525185	      5.93641071
      1.97500000	     14.36921554	      2.36771444	     -3.96488620	      0.45107599	      0.95130976	      0.30522795	      7.96098344	     -5.29258238	     -3.15785912	    -64.53354189	     20.66101341	      5.12144554	     45.79414594	     -8.24733587	      6.58082376	     -6.85113670	    -17.62924403	     23.46555222	      7.86434692	     15.60574033	    -30.53863651	     -2.31487136	      5.88066303
      1.98000000	     14.51492294	      2.32919383	     -3.82243380	      0.45726745	      0.95169556	      0.30537647	      8.31668742	     -5.23683463	     -3.33253023	    -63.69415050	     20.94716129	      5.15749819	     45.54568283	     -9.03424689	      6.50437540	     -6.88776093	    -17.24313896	     23.68751406	      8.32871590	     15.33533825	    -30.68186936	     -2.14551136	      5.72096942
      1.98500000	     14.55639880	      2.36134576	     -3.77009142	      0.46341552	      0.95181362	      0.30560935	      8.83312263	     -5.26364613	     -3.41089357	    -62.86511061	     21.22910474	      5.38259564	     45.44058672	     -9.70748379	      6.52699595	     -6.93367450	    -16.82857316	     23.91824605	      8.66614389	     15.16380048	    -30.71746436	     -2.08707444	      5.58068549
      1.99000000	     14.71967298	      2.31012283	     -3.67592115	      0.46966634	      0.95216522	      0.30581942	      9.10009281	     -5.22391605	     -3.56326924	    -61.83028323	     21.53567874	      5.76863635	     45.25849694	    -10.58832813	      6.47689607	     -6.84069133	    -16.29484459	     24.09334430	      8.87194165	     14.94629991	    -30.86536048	     -1.92926252	      5.48462394
      1.99500000	     14.80809519	      2.25575368	     -3.57892944	      0.47567887	      0.95232464	      0.30607581	      9.48847429	     -5.13137359	     -3.65815064	    -60.84492293	     21.82032118	      5.98447470	     44.05270754	    -11.37836746	      6.43176654	     -6.64346545	    -15.76197501	     24.28151980	      8.95966580	     13.83884325	    -30.96238583	     -1.78849832	      5.45256711
      2.00000000	     14.92898574	      2.28938181	     -3.45902802	      0.48188388	      0.95242002	      0.30624541	      9.82154759	     -5.19178937	     -3.83439070	    -59.84364833	     22.04367795	      6.17776547	     44.09065084	    -12.19794265	      6.47126367	     -6.33384504	    -15.25523553	     24.38011341	      9.01595124	     13.76885250	    -31.06548114	     -1.71670191	      5.23274263
      2.00500000	     15.10324276	      2.23285019	     -3.30215475	      0.48790318	      0.95254377	      0.30646872	      9.99280284	     -5.12865847	     -4.08666942	    -58.63227996	     22.35988257	      6.18798341	     43.82470348	    -13.01884268	      6.39217049	     -6.10725281	    -14.84249404	     24.47543350	      9.15171483	     13.66191096	    -31.24828683	     -1.53473623	      5.10704117
      2.01000000	     15.33614427	      2.18336613	     -3.16602516	      0.49408694	      0.95274797	      0.30671197	     10.06163332	     -5.05974834	     -4.24900751	    -57.34191752	     22.47029822	      6.27188095	     43.69388758	    -13.94832314	      6.34158817	     -5.79130040	    -14.34614160	     24.64568560	      9.08053420	     13.55451987	    -31.48653813	     -1.36593348	      4.98188323
      2.01500000	     15.52076331	      2.11298013	     -3.08401055	      0.50037693	      0.95278898	      0.30699217	     10.18943490	     -4.95950417	     -4.33588379	    -56.06234626	     22.47226656	      6.24730452	     43.61719052	    -14.83374405	      6.28055278	     -5.59691243	    -13.85019179	     24.79945361	      8.99273612	     13.41822796	    -31.66214919	     -1.20738093	      4.93317404
      2.02000000	     15.60639633	      2.05013484	     -2.98070319	      0.50632891	      0.95257659	      0.30733665	     10.44908596	     -4.88759330	     -4.49557531	    -54.77461822	     22.46468666	      6.39853764	     43.55109634	    -15.51105151	      6.19655830	     -5.46365421	    -13.49200182	     24.97179630	      9.06350674	     13.19733302	    -31.76804167	     -1.05544037	      4.83412957
